<svg xmlns="http://www.w3.org/2000/svg" viewBox="0 0 128 128">
  <path fill="#A8B9CC" d="M118.8 33.3L67.1 3.5c-1.9-1.1-4.2-1.1-6.1 0L9.3 33.3c-1.9 1.1-3.1 3.1-3.1 5.3v59.6c0 2.2 1.2 4.2 3.1 5.3l51.8 29.8c1.9 1.1 4.2 1.1 6.1 0l51.8-29.8c1.9-1.1 3.1-3.1 3.1-5.3V38.6c0-2.2-1.2-4.2-3.1-5.3z"/>
  
  <path fill="#FFF" d="M74.8 86c-1.8 1.9-4.3 2.9-7.4 2.9-3.7 0-6.6-1.3-8.8-3.9s-3.2-6.2-3.2-10.9c0-4.6 1.1-8.2 3.2-10.8s5-3.9 8.7-3.9c3.2 0 5.7 1 7.5 3.1.5.6.8 1.4.8 2.2 0 .9-.3 1.6-.9 2.2s-1.3.9-2.2.9c-.6 0-1.1-.2-1.6-.5-1-.9-2.1-1.3-3.4-1.3-1.6 0-2.8.8-3.6 2.4s-1.2 3.5-1.2 5.8 0 4.1.8 5.6c.8 1.5 2 2.3 3.6 2.3 1.5 0 2.8-.5 3.9-1.5.4-.4 1-.6 1.6-.6s1.5.3 2.1.8.9 1.3.9 2.1c.1.9-.3 1.7-1.2 2.3z"/>
</svg>