<svg xmlns="http://www.w3.org/2000/svg" viewBox="0 0 128 128"><path fill="#A8B9CC" d="M115.4 30.7 68.7 2.3a9.72 9.72 0 0 0-9.4 0L12.6 30.7A9.79 9.79 0 0 0 7.9 39v56.6a9.79 9.79 0 0 0 4.7 8.3l46.7 28.4a9.72 9.72 0 0 0 9.4 0l46.7-28.4a9.79 9.79 0 0 0 4.7-8.3V39a9.68 9.68 0 0 0-4.7-8.3z"/><path fill="#fff" d="M64 23.6a44.34 44.34 0 0 0-9.7 87.7l2.4-8.5a36.24 36.24 0 1 1 14.6 0l2.4 8.5A44.34 44.34 0 0 0 64 23.6z"/><path fill="#fff" d="M64 37.5A30.5 30.5 0 0 0 45 89.7l3-8.4a22.44 22.44 0 1 1 32 0l3 8.4A30.5 30.5 0 0 0 64 37.5z"/><path fill="#A8B9CC" d="M64.1 51.7a16.3 16.3 0 1 0 16.3 16.3 16.3 16.3 0 0 0-16.3-16.3z"/></svg>
