<svg xmlns="http://www.w3.org/2000/svg" viewBox="0 0 128 128">
  <path fill="#00599C" d="M118.9 33.3l-51.8-29.8c-1.9-1.1-4.2-1.1-6.1 0L9.1 33.3c-1.9 1.1-3.1 3.1-3.1 5.3v59.6c0 2.2 1.2 4.2 3.1 5.3l51.8 29.8c1.9 1.1 4.2 1.1 6.1 0l51.8-29.8c1.9-1.1 3.1-3.1 3.1-5.3V38.6c0-2.2-1.2-4.2-3.1-5.3z"/>
  <path fill="#FFF" d="M60.8 86c-1.8 1.9-4.3 2.9-7.4 2.9-3.7 0-6.6-1.3-8.8-3.9-2.2-2.6-3.2-6.2-3.2-10.9 0-4.6 1.1-8.2 3.2-10.8 2.2-2.6 5-3.9 8.7-3.9 3.2 0 5.7 1 7.5 3.1.5.6.8 1.4.8 2.2 0 .9-.3 1.6-.9 2.2-.6.6-1.3.9-2.2.9-.6 0-1.1-.2-1.6-.5-1-.9-2.1-1.3-3.4-1.3-1.6 0-2.8.8-3.6 2.4-.8 1.6-1.2 3.5-1.2 5.8 0 2.2.4 4.1 1.2 5.6.8 1.5 2 2.3 3.6 2.3 1.5 0 2.8-.5 3.9-1.5.4-.4 1-.6 1.6-.6.8 0 1.5.3 2.1.8.6.6.9 1.3.9 2.1.1.9-.3 1.7-1.2 2.3zM83.4 75.3h-4.3v4.3c0 .8-.3 1.5-.9 2.1-.6.6-1.3.9-2.1.9-.8 0-1.5-.3-2.1-.9-.6-.6-.9-1.3-.9-2.1v-4.3h-4.3c-.8 0-1.5-.3-2.1-.9-.6-.6-.9-1.3-.9-2.1 0-.8.3-1.5.9-2.1.6-.6 1.3-.9 2.1-.9h4.3v-4.3c0-.8.3-1.5.9-2.1.6-.6 1.3-.9 2.1-.9.8 0 1.5.3 2.1.9.6.6.9 1.3.9 2.1v4.3h4.3c.8 0 1.5.3 2.1.9.6.6.9 1.3.9 2.1 0 .8-.3 1.5-.9 2.1-.6.6-1.3.9-2.1.9zM102.7 75.3h-4.3v4.3c0 .8-.3 1.5-.9 2.1-.6.6-1.3.9-2.1.9-.8 0-1.5-.3-2.1-.9-.6-.6-.9-1.3-.9-2.1v-4.3h-4.3c-.8 0-1.5-.3-2.1-.9-.6-.6-.9-1.3-.9-2.1 0-.8.3-1.5.9-2.1.6-.6 1.3-.9 2.1-.9h4.3v-4.3c0-.8.3-1.5.9-2.1.6-.6 1.3-.9 2.1-.9.8 0 1.5.3 2.1.9.6.6.9 1.3.9 2.1v4.3h4.3c.8 0 1.5.3 2.1.9.6.6.9 1.3.9 2.1 0 .8-.3 1.5-.9 2.1-.5.6-1.3.9-2.1.9z"/>
</svg>