<svg xmlns="http://www.w3.org/2000/svg" viewBox="0 0 128 128"><path fill="#E44D26" d="M19.037 113.876 9.032 1.661h109.936l-10.016 112.198L64.012 128z"/><path fill="#F16529" d="m64 118.861 36.378-10.079 8.559-95.878H64z"/><path fill="#EBEBEB" d="M64 52.455H45.788l-1.257-14.094H64V24.474H27.867l.331 3.692 3.386 37.971H64zm0 35.743-.061.017-15.327-4.14-.98-10.975H33.816l1.928 21.609 28.193 7.826.063-.017z"/><path fill="#fff" d="M63.952 52.455v13.887h16.947l-1.597 17.849-15.35 4.143v14.319l28.215-7.82.207-2.325 3.234-36.233.336-3.82h-3.708zm0-27.981v13.887h33.595l.277-3.109.628-7.035.332-3.743z"/></svg>
