<svg xmlns="http://www.w3.org/2000/svg" viewBox="0 0 128 128"><path fill="#F0DB4F" d="M1.408 1.408h125.184v125.184H1.408z"/><path fill="#323330" d="M116.347 96.736c-.917-5.711-4.641-10.508-15.672-14.981-3.832-1.761-8.104-3.022-9.377-5.926-.452-1.69-.512-2.642-.226-3.665.821-3.32 4.784-4.355 7.925-3.403 2.023.678 3.938 2.237 5.093 4.86 5.404-3.522 5.404-3.522 9.173-5.88-1.392-2.198-2.226-3.166-3.166-4.087-3.403-3.665-7.38-5.498-14.27-5.355l-3.523.452c-3.403.833-6.615 2.642-8.59 5.166-5.898 6.849-4.2 18.951 2.928 23.898 7.069 5.54 17.42 6.758 18.756 11.958 1.261 6.257-4.59 8.278-10.44 7.55-4.322-.762-6.703-2.642-9.377-6.062l-9.58 5.498c1.088 2.583 2.38 3.712 4.292 5.926 9.268 9.268 32.412 8.806 36.558-5.274.143-.452 1.261-3.738.298-8.675zM69.225 45.168H57.712c0 8.354-.071 16.596-.071 24.981 0 5.325.285 10.208-.595 11.713-1.392 3.022-5.012 2.642-6.652 2.094-1.666-.845-2.487-2.046-3.475-3.748-.285-.488-.512-.905-.583-.905l-9.53 5.926c1.594 3.32 3.94 6.179 6.9 8.015 4.355 2.642 10.208 3.522 16.398 2.046 4.038-1.297 7.497-4.087 9.268-8.278 2.594-5.54 2.046-12.268 2.023-19.734.071-7.318 0-14.636 0-21.978v-.131z"/></svg>
